<svg width="36" height="36" viewBox="0 0 36 36" fill="none" xmlns="http://www.w3.org/2000/svg">
<path d="M13.4667 27.0671L14.4096 26.4366C14.3059 26.2815 14.1657 26.1544 14.0012 26.0666C13.8367 25.9788 13.6531 25.9329 13.4667 25.9331V27.0671ZM18 33.8668L17.0571 34.4951C17.1606 34.6504 17.3008 34.7778 17.4653 34.8658C17.6298 34.9539 17.8134 35 18 35C18.1866 35 18.3702 34.9539 18.5347 34.8658C18.6992 34.7778 18.8394 34.6504 18.9429 34.4951L18 33.8668ZM22.5333 27.0671V25.9331C22.3469 25.9329 22.1633 25.9788 21.9988 26.0666C21.8343 26.1544 21.6941 26.2815 21.5904 26.4366L22.5333 27.0671ZM12.5237 27.6954L17.0571 34.4951L18.9429 33.2363L14.4096 26.4366L12.5237 27.6954ZM18.9429 34.4951L23.4763 27.6954L21.5904 26.4366L17.0571 33.2363L18.9429 34.4951ZM22.5333 28.2012H31.6V25.9331H22.5333V28.2012ZM31.6 28.2012C33.4791 28.2012 35 26.6815 35 24.799H32.7333C32.7333 25.4273 32.2279 25.9331 31.6 25.9331V28.2012ZM35 24.799V4.40213H32.7333V24.8013H35V24.799ZM35 4.40213C35 2.51962 33.4791 1 31.6 1V3.26809C32.2279 3.26809 32.7333 3.77387 32.7333 4.40213H35ZM31.6 1H4.4V3.26809H31.6V1ZM4.4 1C2.52093 1 1 2.51962 1 4.40213H3.26667C3.26667 3.77387 3.77213 3.26809 4.4 3.26809V1ZM1 4.40213V24.799H3.26667V4.40213H1ZM1 24.799C1 26.6815 2.52093 28.2012 4.4 28.2012V25.9331C4.25108 25.9334 4.10358 25.9042 3.96594 25.8474C3.8283 25.7905 3.70325 25.7069 3.59795 25.6016C3.49265 25.4962 3.40918 25.3711 3.35233 25.2334C3.29548 25.0956 3.26637 24.948 3.26667 24.799H1ZM4.4 28.2012H13.4667V25.9331H4.4V28.2012ZM12.3333 19.1447H23.6667V16.8766H12.3333V19.1447ZM10.0667 12.3404H25.9333V10.0723H10.0667V12.3404Z" fill="#6E84FF"/>
<path d="M14.4096 26.4366L13.4667 27.0671V25.9331M14.4096 26.4366C14.3059 26.2815 14.1657 26.1544 14.0012 26.0666C13.8367 25.9788 13.6531 25.9329 13.4667 25.9331M14.4096 26.4366L18.9429 33.2363L17.0571 34.4951M14.4096 26.4366L12.5237 27.6954L17.0571 34.4951M13.4667 25.9331V28.2012H4.4M13.4667 25.9331H4.4M17.0571 34.4951L18 33.8668L18.9429 34.4951M17.0571 34.4951C17.1606 34.6504 17.3008 34.7778 17.4653 34.8658C17.6298 34.9539 17.8134 35 18 35C18.1866 35 18.3702 34.9539 18.5347 34.8658C18.6992 34.7778 18.8394 34.6504 18.9429 34.4951M18.9429 34.4951L23.4763 27.6954L21.5904 26.4366M18.9429 34.4951L17.0571 33.2363L21.5904 26.4366M22.5333 25.9331V27.0671L21.5904 26.4366M22.5333 25.9331C22.3469 25.9329 22.1633 25.9788 21.9988 26.0666C21.8343 26.1544 21.6941 26.2815 21.5904 26.4366M22.5333 25.9331H31.6M22.5333 25.9331V28.2012H31.6M31.6 28.2012V25.9331M31.6 28.2012C33.4791 28.2012 35 26.6815 35 24.799M31.6 25.9331C32.2279 25.9331 32.7333 25.4273 32.7333 24.799H35M35 24.799V4.40213M35 24.799V24.8013H32.7333V4.40213M35 4.40213H32.7333M35 4.40213C35 2.51962 33.4791 1 31.6 1M32.7333 4.40213C32.7333 3.77387 32.2279 3.26809 31.6 3.26809M31.6 1V3.26809M31.6 1H4.4M31.6 3.26809H4.4M4.4 1V3.26809M4.4 1C2.52093 1 1 2.51962 1 4.40213M4.4 3.26809C3.77213 3.26809 3.26667 3.77387 3.26667 4.40213M1 4.40213H3.26667M1 4.40213V24.799M3.26667 4.40213V24.799M1 24.799H3.26667M1 24.799C1 26.6815 2.52093 28.2012 4.4 28.2012M3.26667 24.799C3.26637 24.948 3.29548 25.0956 3.35233 25.2334C3.40918 25.3711 3.49265 25.4962 3.59795 25.6016C3.70325 25.7069 3.8283 25.7905 3.96594 25.8474C4.10358 25.9042 4.25108 25.9334 4.4 25.9331M4.4 28.2012V25.9331M12.3333 19.1447H23.6667V16.8766H12.3333V19.1447ZM10.0667 12.3404H25.9333V10.0723H10.0667V12.3404Z" stroke="#6E84FF" stroke-width="0.2"/>
</svg>
