<svg width="41" height="27" viewBox="0 0 41 27" fill="none" xmlns="http://www.w3.org/2000/svg">
<path d="M28.8864 15.4286C26.65 15.4286 23.165 16.0843 20.5 17.3571C17.835 16.065 14.35 15.4286 12.1136 15.4286C8.06954 15.4286 0 17.5114 0 21.6964V27H41V21.6964C41 17.5114 32.9305 15.4286 28.8864 15.4286ZM21.4318 24.1071H2.79545V21.6964C2.79545 20.655 7.56636 18.3214 12.1136 18.3214C16.6609 18.3214 21.4318 20.655 21.4318 21.6964V24.1071ZM38.2045 24.1071H24.2273V21.6964C24.2273 20.8093 23.8545 20.0379 23.2582 19.3436C24.8982 18.765 26.9109 18.3214 28.8864 18.3214C33.4336 18.3214 38.2045 20.655 38.2045 21.6964V24.1071ZM12.1136 13.5C15.7105 13.5 18.6364 10.4721 18.6364 6.75C18.6364 3.02786 15.7105 0 12.1136 0C8.51682 0 5.59091 3.02786 5.59091 6.75C5.59091 10.4721 8.51682 13.5 12.1136 13.5ZM12.1136 2.89286C14.1636 2.89286 15.8409 4.62857 15.8409 6.75C15.8409 8.87143 14.1636 10.6071 12.1136 10.6071C10.0636 10.6071 8.38636 8.87143 8.38636 6.75C8.38636 4.62857 10.0636 2.89286 12.1136 2.89286ZM28.8864 13.5C32.4832 13.5 35.4091 10.4721 35.4091 6.75C35.4091 3.02786 32.4832 0 28.8864 0C25.2895 0 22.3636 3.02786 22.3636 6.75C22.3636 10.4721 25.2895 13.5 28.8864 13.5ZM28.8864 2.89286C30.9364 2.89286 32.6136 4.62857 32.6136 6.75C32.6136 8.87143 30.9364 10.6071 28.8864 10.6071C26.8364 10.6071 25.1591 8.87143 25.1591 6.75C25.1591 4.62857 26.8364 2.89286 28.8864 2.89286Z" fill="#6E84FF"/>
</svg>
