<svg width="38" height="34" viewBox="0 0 38 34" fill="none" xmlns="http://www.w3.org/2000/svg">
<path d="M28.5 22.3125H30.875V27.625H28.5V22.3125Z" fill="#6E84FF"/>
<path d="M23.75 17H26.125V27.625H23.75V17Z" fill="#6E84FF"/>
<path d="M13.0625 27.625C11.4884 27.6233 9.97922 27.0631 8.86614 26.0671C7.75305 25.0712 7.12689 23.7209 7.125 22.3125H9.5C9.5 22.9429 9.70894 23.5592 10.1004 24.0834C10.4918 24.6076 11.0482 25.0161 11.6992 25.2574C12.3502 25.4986 13.0665 25.5617 13.7575 25.4388C14.4486 25.3158 15.0833 25.0122 15.5816 24.5664C16.0798 24.1206 16.4191 23.5527 16.5565 22.9344C16.694 22.316 16.6235 21.6751 16.3538 21.0927C16.0842 20.5103 15.6276 20.0124 15.0417 19.6622C14.4559 19.3119 13.7671 19.125 13.0625 19.125V17C14.6372 17 16.1474 17.5597 17.2609 18.556C18.3744 19.5523 19 20.9035 19 22.3125C19 23.7215 18.3744 25.0727 17.2609 26.069C16.1474 27.0653 14.6372 27.625 13.0625 27.625Z" fill="#6E84FF"/>
<path d="M33.25 2.125H4.75C4.1203 2.12556 3.51658 2.34963 3.07132 2.74802C2.62605 3.14641 2.37563 3.68659 2.375 4.25V29.75C2.37563 30.3134 2.62605 30.8536 3.07132 31.252C3.51658 31.6504 4.1203 31.8744 4.75 31.875H33.25C33.8796 31.8742 34.4831 31.65 34.9283 31.2517C35.3735 30.8533 35.6241 30.3133 35.625 29.75V4.25C35.6244 3.68659 35.3739 3.14641 34.9287 2.74802C34.4834 2.34963 33.8797 2.12556 33.25 2.125ZM33.25 11.6875H16.625V4.25H33.25V11.6875ZM14.25 4.25V11.6875H4.75V4.25H14.25ZM4.75 29.75V13.8125H33.25L33.2524 29.75H4.75Z" fill="#6E84FF"/>
</svg>
