<svg width="35" height="38" viewBox="0 0 35 38" fill="none" xmlns="http://www.w3.org/2000/svg">
<path fill-rule="evenodd" clip-rule="evenodd" d="M29.5227 27.8532C30.2911 29.0267 31.2159 30.0927 32.2723 31.0226C32.3892 31.124 32.4828 31.2488 32.547 31.3887C32.6112 31.5286 32.6446 31.6803 32.6448 31.8339V33.3051C32.6448 33.592 32.5293 33.8671 32.3239 34.07C32.1185 34.2728 31.8398 34.3868 31.5493 34.3868H1.09546C0.804927 34.3868 0.526292 34.2728 0.320853 34.07C0.115414 33.8671 0 33.592 0 33.3051V31.8339C0.00019696 31.6803 0.033514 31.5286 0.0977343 31.3887C0.161955 31.2488 0.255606 31.124 0.372457 31.0226C1.41336 30.0899 2.32335 29.024 3.07825 27.8532C3.91713 26.2334 4.41992 24.4644 4.55712 22.6501V17.3064C4.55025 14.4833 5.57795 11.753 7.45048 9.61962C9.32301 7.48626 11.9139 6.09388 14.7449 5.69953V4.28248C14.7449 3.89948 14.899 3.53217 15.1733 3.26135C15.4475 2.99052 15.8195 2.83838 16.2074 2.83838C16.5952 2.83838 16.9672 2.99052 17.2415 3.26135C17.5157 3.53217 17.6698 3.89948 17.6698 4.28248V5.64545C18.9341 5.80607 20.1629 6.17155 21.3067 6.72717V7.40865C21.3256 8.04855 21.4212 8.68399 21.5916 9.30167C20.0464 8.28728 18.2326 7.74545 16.3772 7.74399C15.1094 7.74682 13.8546 7.99656 12.6846 8.47892C11.5147 8.96128 10.4527 9.66678 9.55924 10.555C8.66582 11.4433 7.95861 12.4968 7.47811 13.6553C6.9976 14.8138 6.75323 16.0545 6.759 17.3064V22.6609C6.62473 24.8742 6.00818 27.0327 4.95149 28.989C4.19518 30.1724 3.29779 31.2619 2.27856 32.2342H30.3333C29.3141 31.2619 28.4167 30.1724 27.6604 28.989C26.6037 27.0327 25.9872 24.8742 25.8529 22.6609V17.3172C25.8533 16.349 25.7055 15.3862 25.4147 14.4615C26.1777 14.8931 27.0063 15.1999 27.8685 15.3701C27.9807 16.0097 28.0394 16.6573 28.0438 17.3064V22.6501C28.181 24.4644 28.6838 26.2334 29.5227 27.8532ZM18.2467 37.2765C17.7294 37.7279 17.0672 37.9841 16.3772 37.9998C15.6682 38.0099 14.9797 37.7654 14.4396 37.3117C13.8996 36.858 13.5448 36.2261 13.4413 35.5334H19.2034C19.1028 36.2077 18.7639 36.8252 18.2467 37.2765Z" fill="#6E84FF"/>
<path fill-rule="evenodd" clip-rule="evenodd" d="M34.9651 6.02811C34.9651 8.88839 32.617 11.2071 29.7204 11.2071C26.8238 11.2071 24.4756 8.88839 24.4756 6.02811C24.4756 3.16784 26.8238 0.849121 29.7204 0.849121C32.617 0.849121 34.9651 3.16784 34.9651 6.02811ZM29.7204 8.90533C31.3296 8.90533 32.6341 7.61716 32.6341 6.02811C32.6341 4.43907 31.3296 3.1509 29.7204 3.1509C28.1111 3.1509 26.8066 4.43907 26.8066 6.02811C26.8066 7.61716 28.1111 8.90533 29.7204 8.90533Z" fill="#6E84FF"/>
</svg>
