<svg width="39" height="39" viewBox="0 0 39 39" fill="none" xmlns="http://www.w3.org/2000/svg">
<path d="M10.6166 20.3665H28.3833V23.7032H30.1166V18.6332H20.3666V15.1665H18.6333V18.6332H8.8833V23.7032H10.6166V20.3665Z" fill="#6E84FF"/>
<path d="M15.1666 24.9165H4.33329C3.75866 24.9165 3.20756 25.1448 2.80123 25.5511C2.3949 25.9574 2.16663 26.5085 2.16663 27.0832V33.5832C2.16663 34.1578 2.3949 34.7089 2.80123 35.1152C3.20756 35.5216 3.75866 35.7498 4.33329 35.7498H15.1666C15.7413 35.7498 16.2924 35.5216 16.6987 35.1152C17.105 34.7089 17.3333 34.1578 17.3333 33.5832V27.0832C17.3333 26.5085 17.105 25.9574 16.6987 25.5511C16.2924 25.1448 15.7413 24.9165 15.1666 24.9165ZM4.33329 33.5832V27.0832H15.1666V33.5832H4.33329Z" fill="#6E84FF"/>
<path d="M34.6666 24.9165H23.8333C23.2587 24.9165 22.7076 25.1448 22.3012 25.5511C21.8949 25.9574 21.6666 26.5085 21.6666 27.0832V33.5832C21.6666 34.1578 21.8949 34.7089 22.3012 35.1152C22.7076 35.5216 23.2587 35.7498 23.8333 35.7498H34.6666C35.2413 35.7498 35.7924 35.5216 36.1987 35.1152C36.605 34.7089 36.8333 34.1578 36.8333 33.5832V27.0832C36.8333 26.5085 36.605 25.9574 36.1987 25.5511C35.7924 25.1448 35.2413 24.9165 34.6666 24.9165ZM23.8333 33.5832V27.0832H34.6666V33.5832H23.8333Z" fill="#6E84FF"/>
<path d="M14.0833 14.0833H24.9166C25.4913 14.0833 26.0424 13.8551 26.4487 13.4487C26.855 13.0424 27.0833 12.4913 27.0833 11.9167V5.41667C27.0833 4.84203 26.855 4.29093 26.4487 3.8846C26.0424 3.47827 25.4913 3.25 24.9166 3.25H14.0833C13.5087 3.25 12.9576 3.47827 12.5512 3.8846C12.1449 4.29093 11.9166 4.84203 11.9166 5.41667V11.9167C11.9166 12.4913 12.1449 13.0424 12.5512 13.4487C12.9576 13.8551 13.5087 14.0833 14.0833 14.0833ZM14.0833 5.41667H24.9166V11.9167H14.0833V5.41667Z" fill="#6E84FF"/>
</svg>
