<svg width="37" height="37" viewBox="0 0 37 37" fill="none" xmlns="http://www.w3.org/2000/svg">
<path d="M32.3751 13.775H32.375L4.625 13.775L4.6249 13.775C3.98529 13.7756 3.37206 14.03 2.91978 14.4823C2.46751 14.9346 2.21314 15.5478 2.2125 16.1874V16.1875L2.2125 32.375L2.2125 32.3751C2.21314 33.0147 2.46751 33.6279 2.91978 34.0802C3.37206 34.5325 3.98529 34.7869 4.6249 34.7875H4.625H32.375H32.3751C33.0147 34.7869 33.6279 34.5325 34.0802 34.0802C34.5325 33.6279 34.7869 33.0147 34.7875 32.3751V32.375V16.1875V16.1874C34.7865 15.5478 34.5321 14.9348 34.0799 14.4826C33.6277 14.0304 33.0147 13.776 32.3751 13.775ZM4.725 16.2875H32.2773L32.275 32.275H25.5375V31.2188V31.2187C25.5366 30.2725 25.1603 29.3653 24.4912 28.6963C23.8222 28.0272 22.915 27.6509 21.9688 27.65H21.9688H15.0312H15.0311C14.085 27.6509 13.1778 28.0272 12.5088 28.6963C11.8397 29.3653 11.4634 30.2725 11.4625 31.2187V31.2188V32.275H4.725V16.2875ZM23.025 32.275H13.975V31.2188C13.975 30.9386 14.0863 30.67 14.2844 30.4719C14.4825 30.2738 14.7511 30.1625 15.0312 30.1625H21.9688C22.2489 30.1625 22.5175 30.2738 22.7156 30.4719C22.9137 30.67 23.025 30.9386 23.025 31.2188V32.275Z" fill="#6E84FF" stroke="#6E84FF" stroke-width="0.2"/>
<path d="M18.5 26.5938C17.5853 26.5938 16.6911 26.3225 15.9305 25.8143C15.1699 25.3061 14.5771 24.5838 14.2271 23.7387C13.877 22.8936 13.7854 21.9636 13.9639 21.0665C14.1423 20.1693 14.5828 19.3452 15.2296 18.6984C15.8765 18.0516 16.7005 17.6111 17.5977 17.4326C18.4949 17.2542 19.4248 17.3458 20.2699 17.6958C21.115 18.0459 21.8373 18.6387 22.3455 19.3992C22.8538 20.1598 23.125 21.054 23.125 21.9688C23.1238 23.195 22.6361 24.3707 21.769 25.2378C20.9019 26.1049 19.7263 26.5925 18.5 26.5938ZM18.5 19.6563C18.0426 19.6563 17.5955 19.7919 17.2152 20.046C16.835 20.3001 16.5386 20.6612 16.3635 21.0838C16.1885 21.5064 16.1427 21.9713 16.2319 22.4199C16.3212 22.8685 16.5414 23.2805 16.8648 23.6039C17.1882 23.9273 17.6003 24.1476 18.0489 24.2368C18.4974 24.326 18.9624 24.2803 19.385 24.1052C19.8075 23.9302 20.1687 23.6338 20.4228 23.2535C20.6769 22.8732 20.8125 22.4261 20.8125 21.9688C20.8119 21.3556 20.5681 20.7678 20.1345 20.3342C19.701 19.9007 19.1131 19.6569 18.5 19.6563Z" fill="#6E84FF"/>
<path d="M34.7375 4.625V4.62493C34.7366 3.99866 34.4874 3.39831 34.0445 2.95547C33.6017 2.51264 33.0013 2.26344 32.3751 2.2625H32.375L27.75 2.2625L27.7499 2.2625C27.1237 2.26344 26.5233 2.51264 26.0805 2.95547C25.6376 3.39831 25.3884 3.99866 25.3875 4.62493V4.625L25.3875 9.25L25.3875 9.25007C25.3884 9.87634 25.6376 10.4767 26.0805 10.9195C26.5233 11.3624 27.1237 11.6116 27.7499 11.6125H27.75H32.375H32.3751C33.0013 11.6116 33.6017 11.3624 34.0445 10.9195C34.4874 10.4767 34.7366 9.87634 34.7375 9.25007V9.25V4.625ZM27.8 9.2V4.675H32.3273L32.325 9.2H27.8Z" fill="#6E84FF" stroke="#6E84FF" stroke-width="0.1"/>
<path d="M23.175 4.625V4.62493C23.1741 3.99866 22.9249 3.39831 22.482 2.95547C22.0392 2.51264 21.4388 2.26344 20.8126 2.2625H20.8125L16.1875 2.2625L16.1875 2.2625C15.5611 2.26313 14.9605 2.51223 14.5176 2.95514C14.0747 3.39805 13.8256 3.99858 13.825 4.62495V4.625L13.825 9.25L13.825 9.25005C13.8256 9.87642 14.0747 10.477 14.5176 10.9199C14.9605 11.3628 15.5611 11.6119 16.1875 11.6125H16.1875H20.8125H20.8126C21.4388 11.6116 22.0392 11.3624 22.482 10.9195C22.9249 10.4767 23.1741 9.87634 23.175 9.25007V9.25V4.625ZM16.2375 9.2V4.675H20.7648L20.7625 9.2H16.2375Z" fill="#6E84FF" stroke="#6E84FF" stroke-width="0.1"/>
<path d="M11.6125 9.25005V9.25V4.625V4.62495C11.6119 3.99858 11.3628 3.39805 10.9199 2.95514C10.477 2.51223 9.87642 2.26313 9.25005 2.2625H9.25L4.625 2.2625L4.62495 2.2625C3.99858 2.26313 3.39805 2.51223 2.95514 2.95514C2.51223 3.39805 2.26313 3.99858 2.2625 4.62495V4.625L2.2625 9.25L2.2625 9.25005C2.26313 9.87642 2.51223 10.477 2.95514 10.9199C3.39805 11.3628 3.99858 11.6119 4.62495 11.6125H4.625H9.25H9.25005C9.87642 11.6119 10.477 11.3628 10.9199 10.9199C11.3628 10.477 11.6119 9.87642 11.6125 9.25005ZM4.675 9.2V4.675H9.20229L9.20002 9.2H4.675Z" fill="#6E84FF" stroke="#6E84FF" stroke-width="0.1"/>
</svg>
