<svg width="46" height="37" viewBox="0 0 46 37" fill="none" xmlns="http://www.w3.org/2000/svg">
<path d="M14.375 20.8125H25.875V23.125H14.375V20.8125Z" fill="#6E84FF"/>
<path d="M14.375 15.0312H31.625V17.3438H14.375V15.0312Z" fill="#6E84FF"/>
<path d="M14.375 26.5938H21.5625V28.9062H14.375V26.5938Z" fill="#6E84FF"/>
<path d="M35.9375 5.78125H31.625V4.625C31.625 4.01169 31.3221 3.42349 30.7829 2.98982C30.2438 2.55614 29.5125 2.3125 28.75 2.3125H17.25C16.4875 2.3125 15.7562 2.55614 15.2171 2.98982C14.6779 3.42349 14.375 4.01169 14.375 4.625V5.78125H10.0625C9.3 5.78125 8.56873 6.02489 8.02957 6.45857C7.4904 6.89224 7.1875 7.48044 7.1875 8.09375V32.375C7.1875 32.9883 7.4904 33.5765 8.02957 34.0102C8.56873 34.4439 9.3 34.6875 10.0625 34.6875H35.9375C36.7 34.6875 37.4313 34.4439 37.9704 34.0102C38.5096 33.5765 38.8125 32.9883 38.8125 32.375V8.09375C38.8125 7.48044 38.5096 6.89224 37.9704 6.45857C37.4313 6.02489 36.7 5.78125 35.9375 5.78125ZM17.25 4.625H28.75V9.25H17.25V4.625ZM35.9375 32.375H10.0625V8.09375H14.375V11.5625H31.625V8.09375H35.9375V32.375Z" fill="#6E84FF"/>
</svg>
