<svg width="34" height="37" viewBox="0 0 34 37" fill="none" xmlns="http://www.w3.org/2000/svg">
<path d="M20.0476 1H4.80956C2.70893 1 1 2.29428 1 3.88521V24.6586C1 26.2494 2.70893 27.5438 4.80956 27.5438H18.5239V26.3897H4.80956C3.54938 26.3897 2.52384 25.613 2.52384 24.6586V3.88521C2.52384 2.9308 3.54938 2.1541 4.80956 2.1541H20.0477C21.3079 2.1541 22.3334 2.9308 22.3334 3.88521V20.6193H23.8572V3.88521C23.8572 2.29428 22.1483 1 20.0476 1Z" fill="#6E84FF" stroke="#6E84FF" stroke-width="0.8"/>
<path d="M31.1646 16.3694L23.6903 9.29492L22.4994 10.0162L29.9737 17.0901C30.9437 18.0076 31.477 19.1606 31.4762 20.336V34.4676H20.3296C16.3936 34.4676 13.1906 32.0423 13.1906 29.0608V26.9661H11.6667V29.0608C11.6667 32.6782 15.5533 35.6217 20.3296 35.6217H32.2382C32.6596 35.6217 33.0001 35.3638 33.0001 35.0447V20.3366C33.0009 18.9009 32.3495 17.4917 31.1646 16.3694Z" fill="#6E84FF" stroke="#6E84FF" stroke-width="0.8"/>
<path d="M13.9493 14.6087C14.4841 14.6203 14.9817 14.7887 15.3482 15.083L25.5875 23.3231L26.6976 22.532L16.4567 14.2913C15.8099 13.7725 14.9344 13.4754 13.9927 13.4552C13.0411 13.4309 12.155 13.6935 11.4784 14.1776C11.47 14.184 11.409 14.2278 11.4015 14.2342C10.0994 15.2232 10.0117 16.7754 11.1996 17.8476L17.7619 23.716V25.5014C17.7611 28.6901 20.4088 31.5828 24.3517 32.7011L24.8865 31.6203C21.5356 30.6699 19.285 28.2111 19.2857 25.5014V23.5049C19.2857 23.3687 19.2217 23.2359 19.1051 23.1315L12.3646 17.1032C11.6903 16.495 11.7399 15.6115 12.517 15.0224C12.9055 14.7443 13.4129 14.6063 13.9493 14.6087Z" fill="#6E84FF" stroke="#6E84FF" stroke-width="0.8"/>
<path d="M19.2858 2.15381H17.762V16.5797H19.2858V2.15381Z" fill="#6E84FF" stroke="#6E84FF" stroke-width="0.8"/>
<path d="M15.4764 20.0425H13.9525V26.9669H15.4764V20.0425Z" fill="#6E84FF" stroke="#6E84FF" stroke-width="0.8"/>
<path d="M15.4764 1.57666H13.9525V14.2715H15.4764V1.57666Z" fill="#6E84FF" stroke="#6E84FF" stroke-width="0.8"/>
<path d="M6.33341 3.88525H4.80957V11.3867H6.33341V3.88525Z" fill="#6E84FF" stroke="#6E84FF" stroke-width="0.8"/>
<path d="M10.1431 3.88525H8.61926V8.50157H10.1431V3.88525Z" fill="#6E84FF" stroke="#6E84FF" stroke-width="0.8"/>
<path d="M10.1429 20.0425H5.57145C5.15091 20.0425 4.80957 20.3004 4.80957 20.6195V24.0817C4.80957 24.4008 5.15091 24.6587 5.57145 24.6587H10.1429C10.5634 24.6587 10.9048 24.4008 10.9048 24.0817V20.6195C10.9048 20.3004 10.5634 20.0425 10.1429 20.0425ZM9.38101 23.5047H6.33341V21.1966H9.38101V23.5047Z" fill="#6E84FF" stroke="#6E84FF" stroke-width="0.8"/>
</svg>
